<?xml version="1.0"?>
<svg xmlns="http://www.w3.org/2000/svg" xmlns:xlink="http://www.w3.org/1999/xlink" xmlns:svgjs="http://svgjs.com/svgjs" version="1.1" width="512" height="512" x="0" y="0" viewBox="0 0 512 512" style="enable-background:new 0 0 512 512" xml:space="preserve" class=""><g>
<path xmlns="http://www.w3.org/2000/svg" style="" d="M433.139,67.108L201.294,298.953c-6.249,6.249-16.381,6.249-22.63,0L78.861,199.15L0,278.011  l150.547,150.549c10.458,10.458,24.642,16.333,39.431,16.333l0,0c14.788,0,28.973-5.876,39.43-16.333L512,145.968L433.139,67.108z" fill="#6d6dff" data-original="#a5eb78" class=""/>
<g xmlns="http://www.w3.org/2000/svg" style="opacity:0.1;">
	<path d="M485.921,119.888L187.59,418.22c-8.254,8.253-18.633,13.882-29.847,16.391c9.363,6.635,20.608,10.28,32.235,10.28l0,0   c14.788,0,28.973-5.876,39.43-16.333L512,145.966L485.921,119.888z" fill="#000000" data-original="#000000" style="" class=""/>
</g>
<g xmlns="http://www.w3.org/2000/svg">
</g>
<g xmlns="http://www.w3.org/2000/svg">
</g>
<g xmlns="http://www.w3.org/2000/svg">
</g>
<g xmlns="http://www.w3.org/2000/svg">
</g>
<g xmlns="http://www.w3.org/2000/svg">
</g>
<g xmlns="http://www.w3.org/2000/svg">
</g>
<g xmlns="http://www.w3.org/2000/svg">
</g>
<g xmlns="http://www.w3.org/2000/svg">
</g>
<g xmlns="http://www.w3.org/2000/svg">
</g>
<g xmlns="http://www.w3.org/2000/svg">
</g>
<g xmlns="http://www.w3.org/2000/svg">
</g>
<g xmlns="http://www.w3.org/2000/svg">
</g>
<g xmlns="http://www.w3.org/2000/svg">
</g>
<g xmlns="http://www.w3.org/2000/svg">
</g>
<g xmlns="http://www.w3.org/2000/svg">
</g>
</g></svg>
